<svg enable-background="new 0 0 92 92" height="92" viewBox="0 0 92 92" width="92" xmlns="http://www.w3.org/2000/svg" fill="#1D3354"><path d="m46 25.7c-2.2 0-4-1.8-4-4v-17.2c0-2.2 1.8-4 4-4s4 1.8 4 4v17.2c0 2.2-1.8 4-4 4zm-11.9 3.9c1.8-1.3 2.2-3.8.9-5.6l-10.2-13.9c-1.3-1.8-3.8-2.2-5.6-.9s-2.2 3.8-.9 5.6l10.1 13.9c.8 1.1 2 1.6 3.2 1.6.9.1 1.8-.2 2.5-.7zm-7.4 10.1c.7-2.1-.5-4.4-2.6-5l-16.4-5.3c-2.1-.7-4.4.5-5 2.6-.7 2 .5 4.3 2.6 5l16.4 5.3c.4.1.8.2 1.2.2 1.7 0 3.2-1.1 3.8-2.8zm-19 22.9 16.4-5.3c2.1-.7 3.3-2.9 2.6-5s-2.9-3.2-5-2.6l-16.4 5.3c-2.1.7-3.3 2.9-2.6 5 .5 1.7 2.1 2.8 3.8 2.8.4 0 .8 0 1.2-.2zm17.1 19.3 10.2-13.9c1.3-1.8.9-4.3-.9-5.6s-4.3-.9-5.6.9l-10.1 13.9c-1.3 1.8-.9 4.3.9 5.6.7.5 1.5.8 2.3.8 1.2 0 2.4-.6 3.2-1.7zm25.2 5.6v-17.2c0-2.2-1.8-4-4-4s-4 1.8-4 4v17.2c0 2.2 1.8 4 4 4s4-1.8 4-4zm22.8-4.7c1.8-1.3 2.2-3.8.9-5.6l-10.2-13.9c-1.3-1.8-3.8-2.2-5.6-.9s-2.2 3.8-.9 5.6l10.1 13.9c.8 1.1 2 1.6 3.2 1.6.9.1 1.8-.2 2.5-.7zm16.5-22.7c.7-2.1-.5-4.4-2.6-5l-16.4-5.3c-2.1-.7-4.4.5-5 2.6-.7 2.1.5 4.4 2.6 5l16.4 5.3c.4.1.8.2 1.2.2 1.7-.1 3.3-1.2 3.8-2.8zm-19-17.8 16.4-5.3c2.1-.7 3.3-2.9 2.6-5s-2.9-3.2-5-2.6l-16.4 5.3c-2.1.7-3.3 2.9-2.6 5 .5 1.7 2.1 2.8 3.8 2.8.4 0 .8-.1 1.2-.2zm-6.8-13.6 10.1-13.9c1.3-1.8.9-4.3-.9-5.6s-4.3-.9-5.6.9l-10.1 13.9c-1.3 1.8-.9 4.3.9 5.6.7.5 1.5.8 2.3.8 1.3 0 2.5-.6 3.3-1.7z"/></svg>